# Blender 5.0.1
# www.blender.org
mtllib ax.mtl
o Untitled
v -0.979019 4.198655 -9.540040
v -1.004937 4.073009 -9.541833
v -1.019019 4.073009 -9.338221
v -0.993100 4.198655 -9.336429
v -0.793732 4.189489 -9.322640
v -1.129010 3.872728 -9.345828
v -1.114929 3.872728 -9.549439
v 0.499935 -0.021386 -9.437757
v 0.803128 0.104947 -9.416790
v 0.789046 0.104947 -9.213178
v 0.485854 -0.021386 -9.234146
v -0.779651 4.189489 -9.526252
v -0.822717 4.186794 -9.529230
v -1.138933 4.195028 -9.551100
v -1.153015 4.195028 -9.347488
v -0.836799 4.186794 -9.325619
v -0.873736 3.860485 -9.328174
v -1.242374 3.867215 -9.353668
v -1.228293 3.867215 -9.557280
v -2.703685 0.087997 -9.659315
v -2.398420 -0.033218 -9.638204
v -2.412501 -0.033218 -9.434592
v -2.717766 0.087997 -9.455704
v -0.859654 3.860485 -9.531785
v -0.943928 3.876804 -9.564231
v -0.961673 3.876804 -9.307637
v -0.627515 3.843813 -9.284528
v -0.609769 3.843813 -9.541121
v -0.449111 3.794962 -9.530010
v -0.466856 3.794962 -9.273417
v -0.306198 3.746110 -9.262306
v -0.288452 3.746110 -9.518899
v -0.010071 3.587449 -9.241826
v 0.007675 3.587449 -9.498419
v 0.211299 3.405341 -9.226517
v 0.229045 3.405341 -9.483109
v 0.620784 2.816914 -9.198197
v 0.638529 2.816914 -9.454790
v 0.632298 2.828601 -9.455221
v 0.614552 2.828601 -9.198628
v 0.718254 2.494830 -9.191457
v 0.736000 2.494830 -9.448050
v 0.751166 2.159873 -9.189180
v 0.768911 2.159873 -9.445773
v 0.718254 1.824917 -9.191457
v 0.736000 1.824917 -9.448050
v 0.620784 1.502832 -9.198197
v 0.638529 1.502832 -9.454790
v 0.462500 1.205998 -9.209144
v 0.480246 1.205998 -9.465737
v 0.249487 0.945820 -9.223876
v 0.267232 0.945820 -9.480469
v -0.010071 0.732298 -9.241826
v 0.007675 0.732298 -9.498420
v -0.306198 0.573636 -9.262306
v -0.288453 0.573637 -9.518899
v -0.627515 0.475933 -9.284528
v -0.609769 0.475933 -9.541121
v -0.961673 0.442943 -9.307638
v -0.943928 0.442943 -9.564231
v -1.295832 0.475933 -9.330748
v -1.278086 0.475933 -9.587340
v -1.617149 0.573637 -9.352969
v -1.599403 0.573637 -9.609563
v -1.913276 0.732298 -9.373449
v -1.895530 0.732298 -9.630042
v -2.172833 0.945820 -9.391399
v -2.155088 0.945820 -9.647993
v -2.385847 1.205998 -9.406132
v -2.368102 1.205998 -9.662724
v -2.544130 1.502833 -9.417078
v -2.526385 1.502833 -9.673671
v -2.641601 1.824917 -9.423819
v -2.623855 1.824917 -9.680412
v -2.674513 2.159873 -9.426095
v -2.656767 2.159873 -9.682688
v -2.641601 2.494830 -9.423819
v -2.623855 2.494830 -9.680412
v -2.544130 2.816915 -9.417078
v -2.526385 2.816915 -9.673671
v -2.385847 3.113749 -9.406132
v -2.368102 3.113749 -9.662724
v -2.172833 3.373927 -9.391399
v -2.155088 3.373927 -9.647993
v -1.913276 3.587449 -9.373449
v -1.895530 3.587449 -9.630042
v -1.617149 3.746110 -9.352969
v -1.599403 3.746110 -9.609562
v -0.110742 3.383456 -9.248789
v 0.041809 3.257961 -9.238238
v -0.370054 3.522392 -9.266722
v -0.651424 3.607948 -9.286181
v -1.295832 3.843813 -9.330748
v 0.448974 2.684623 -9.210079
v 0.527036 2.426673 -9.204680
v -0.944039 3.636837 -9.306418
v 0.555856 2.133359 -9.202687
v -1.236654 3.607948 -9.326654
v 0.527036 1.840045 -9.204680
v 0.441684 1.558002 -9.210584
v -1.518024 3.522392 -9.346114
v -1.777337 3.383456 -9.364048
v 0.303078 1.298071 -9.220169
v 0.116547 1.070239 -9.233069
v -2.004626 3.196479 -9.379766
v -0.110742 0.883262 -9.248789
v -2.191157 2.968647 -9.392667
v -2.329762 2.708715 -9.402252
v -0.370054 0.744326 -9.266723
v -0.651424 0.658769 -9.286181
v -2.415115 2.426673 -9.408155
v -2.443935 2.133359 -9.410149
v -0.944039 0.629881 -9.306418
v -2.415115 1.840045 -9.408155
v -1.236654 0.658769 -9.326655
v -1.518024 0.744326 -9.346114
v -2.329762 1.558003 -9.402252
v -2.191157 1.298071 -9.392667
v -1.777337 0.883262 -9.364048
v -2.004626 1.070239 -9.379766
v -1.278086 3.843813 -9.587340
v 0.544782 2.426673 -9.461274
v 0.466720 2.684623 -9.466673
v 0.573602 2.133359 -9.459281
v 0.059555 3.257961 -9.494831
v -0.092996 3.383456 -9.505382
v 0.544782 1.840045 -9.461274
v -0.352308 3.522392 -9.523315
v -0.633679 3.607948 -9.542774
v 0.459429 1.558002 -9.467176
v 0.320824 1.298071 -9.476763
v -0.926294 3.636837 -9.563011
v 0.134293 1.070239 -9.489663
v -0.092996 0.883262 -9.505382
v -1.218909 3.607948 -9.583248
v -1.500279 3.522392 -9.602707
v -0.352308 0.744326 -9.523315
v -1.759591 3.383456 -9.620641
v -0.633679 0.658769 -9.542774
v -0.926294 0.629881 -9.563011
v -1.986880 3.196479 -9.636359
v -2.173411 2.968647 -9.649260
v -1.218909 0.658769 -9.583248
v -2.312016 2.708715 -9.658846
v -2.397369 2.426673 -9.664748
v -1.500279 0.744326 -9.602707
v -1.759591 0.883262 -9.620641
v -2.426189 2.133359 -9.666741
v -1.986880 1.070239 -9.636360
v -2.173411 1.298071 -9.649260
v -2.397369 1.840045 -9.664748
v -2.312016 1.558003 -9.658846
v -0.255823 2.142473 -9.468632
v -0.255823 2.402770 -9.468632
v -0.266959 2.402770 -9.307603
v -0.266959 2.142473 -9.307603
v -2.185445 2.142473 -9.440282
v -2.185445 2.402770 -9.440282
v -2.174308 2.402770 -9.601312
v -2.174308 2.142473 -9.601312
v 0.960665 3.644169 -9.405894
v 0.697590 3.841111 -9.424088
v 0.683509 3.841111 -9.220477
v 0.946584 3.644169 -9.202283
v -1.181444 0.736540 -9.349454
v -1.444519 0.933482 -9.367648
v -1.430438 0.933482 -9.571259
v -1.167363 0.736540 -9.553065
vn -0.9770 0.2025 -0.0676
vn -0.0690 -0.0000 0.9976
vn -0.8739 0.4823 -0.0604
vn 0.3829 -0.9234 0.0265
vn 0.0457 0.9989 0.0032
vn 0.0457 0.9990 0.0032
vn 0.0690 -0.0000 -0.9976
vn 0.0259 0.9997 0.0018
vn -0.9623 0.2636 -0.0666
vn -0.3674 -0.9297 -0.0254
vn 0.9913 -0.1127 0.0686
vn 0.0978 0.9952 0.0068
vn 0.2896 0.9569 0.0200
vn 0.4703 0.8819 0.0325
vn 0.6329 0.7730 0.0438
vn 0.8798 0.4714 0.0608
vn 0.9547 0.2903 0.0660
vn 0.9928 0.0980 0.0687
vn 0.9928 -0.0980 0.0687
vn 0.9547 -0.2903 0.0660
vn 0.8798 -0.4714 0.0608
vn 0.7712 -0.6344 0.0533
vn 0.6329 -0.7730 0.0438
vn 0.4703 -0.8819 0.0325
vn 0.2896 -0.9569 0.0200
vn 0.0978 -0.9952 0.0068
vn -0.0978 -0.9952 -0.0068
vn -0.2896 -0.9569 -0.0200
vn -0.4703 -0.8819 -0.0325
vn -0.6329 -0.7730 -0.0438
vn -0.7712 -0.6344 -0.0533
vn -0.8798 -0.4714 -0.0608
vn -0.9547 -0.2903 -0.0660
vn -0.9928 -0.0980 -0.0687
vn -0.9928 0.0980 -0.0687
vn -0.9547 0.2903 -0.0660
vn -0.8798 0.4714 -0.0608
vn -0.7712 0.6344 -0.0533
vn -0.6329 0.7730 -0.0438
vn -0.4703 0.8819 -0.0325
vn -0.2896 0.9569 -0.0200
vn -0.0978 0.9952 -0.0068
vn 0.6537 -0.7554 0.0452
vn -0.6537 0.7554 -0.0452
vn 0.7712 0.6344 0.0533
vn 0.9976 -0.0000 0.0690
vn -0.0000 1.0000 -0.0000
vn -0.9976 -0.0000 -0.0690
vn -0.0000 -1.0000 -0.0000
vn 0.5969 0.8012 0.0413
vn -0.8044 0.5915 -0.0556
vn -0.5969 -0.8012 -0.0413
vn 0.8044 -0.5915 0.0556
vn 0.9299 0.3621 0.0643
vn -0.9212 -0.3838 -0.0637
vn 0.9275 -0.3683 0.0641
vn -0.9290 0.3644 -0.0642
s 0
usemtl Material.001
f 1//1 2//1 3//1
f 1//1 3//1 4//1
f 5//2 4//2 3//2
f 5//2 3//2 6//2
f 6//3 3//3 2//3
f 6//3 2//3 7//3
f 8//4 9//4 10//4
f 8//4 10//4 11//4
f 12//5 1//5 4//5
f 12//6 4//6 5//6
f 7//7 2//7 12//7
f 2//7 1//7 12//7
f 13//8 14//8 15//8
f 13//8 15//8 16//8
f 17//2 16//2 15//2
f 17//2 15//2 18//2
f 18//9 15//9 14//9
f 18//9 14//9 19//9
f 20//10 21//10 22//10
f 20//10 22//10 23//10
f 24//11 13//11 16//11
f 24//11 16//11 17//11
f 19//7 14//7 13//7
f 19//7 13//7 24//7
f 25//12 26//12 27//12
f 25//12 27//12 28//12
f 29//13 30//13 31//13
f 29//13 31//13 32//13
f 32//14 31//14 33//14
f 32//14 33//14 34//14
f 34//15 33//15 35//15
f 34//15 35//15 36//15
f 37//16 38//16 39//16
f 37//16 39//16 40//16
f 38//17 37//17 41//17
f 38//17 41//17 42//17
f 42//18 41//18 43//18
f 42//18 43//18 44//18
f 44//19 43//19 45//19
f 44//19 45//19 46//19
f 46//20 45//20 47//20
f 46//20 47//20 48//20
f 48//21 47//21 49//21
f 48//21 49//21 50//21
f 50//22 49//22 51//22
f 50//22 51//22 52//22
f 52//23 51//23 53//23
f 52//23 53//23 54//23
f 54//24 53//24 55//24
f 54//24 55//24 56//24
f 56//25 55//25 57//25
f 56//25 57//25 58//25
f 58//26 57//26 59//26
f 58//26 59//26 60//26
f 60//27 59//27 61//27
f 60//27 61//27 62//27
f 62//28 61//28 63//28
f 62//28 63//28 64//28
f 64//29 63//29 65//29
f 64//29 65//29 66//29
f 66//30 65//30 67//30
f 66//30 67//30 68//30
f 68//31 67//31 69//31
f 68//31 69//31 70//31
f 70//32 69//32 71//32
f 70//32 71//32 72//32
f 72//33 71//33 73//33
f 72//33 73//33 74//33
f 74//34 73//34 75//34
f 74//34 75//34 76//34
f 76//35 75//35 77//35
f 76//35 77//35 78//35
f 78//36 77//36 79//36
f 78//36 79//36 80//36
f 80//37 79//37 81//37
f 80//37 81//37 82//37
f 82//38 81//38 83//38
f 82//38 83//38 84//38
f 84//39 83//39 85//39
f 84//39 85//39 86//39
f 86//40 85//40 87//40
f 86//40 87//40 88//40
f 89//2 90//2 35//2
f 35//2 33//2 31//2
f 30//2 27//2 26//2
f 35//2 31//2 30//2
f 91//2 89//2 35//2
f 92//2 91//2 35//2
f 35//2 30//2 26//2
f 26//2 93//2 87//2
f 87//2 85//2 83//2
f 83//2 81//2 79//2
f 79//2 77//2 75//2
f 75//2 73//2 71//2
f 71//2 69//2 67//2
f 67//2 65//2 63//2
f 63//2 61//2 59//2
f 59//2 57//2 55//2
f 55//2 53//2 51//2
f 51//2 49//2 47//2
f 47//2 45//2 43//2
f 43//2 41//2 37//2
f 37//2 40//2 94//2
f 37//2 94//2 95//2
f 47//2 43//2 37//2
f 55//2 51//2 47//2
f 63//2 59//2 55//2
f 71//2 67//2 63//2
f 79//2 75//2 71//2
f 87//2 83//2 79//2
f 92//2 35//2 26//2
f 96//2 92//2 26//2
f 47//2 37//2 95//2
f 47//2 95//2 97//2
f 96//2 26//2 87//2
f 98//2 96//2 87//2
f 47//2 97//2 99//2
f 47//2 99//2 100//2
f 101//2 98//2 87//2
f 102//2 101//2 87//2
f 47//2 100//2 103//2
f 47//2 103//2 104//2
f 102//2 87//2 79//2
f 105//2 102//2 79//2
f 55//2 47//2 104//2
f 55//2 104//2 106//2
f 107//2 105//2 79//2
f 108//2 107//2 79//2
f 55//2 106//2 109//2
f 55//2 109//2 110//2
f 111//2 108//2 79//2
f 112//2 111//2 79//2
f 55//2 110//2 113//2
f 63//2 55//2 113//2
f 112//2 79//2 71//2
f 114//2 112//2 71//2
f 63//2 113//2 115//2
f 63//2 115//2 116//2
f 117//2 114//2 71//2
f 118//2 117//2 71//2
f 63//2 116//2 119//2
f 120//2 118//2 71//2
f 63//2 119//2 120//2
f 71//2 63//2 120//2
f 88//41 87//41 93//41
f 88//41 93//41 121//41
f 121//42 93//42 26//42
f 121//42 26//42 25//42
f 122//7 123//7 39//7
f 39//7 38//7 42//7
f 42//7 44//7 46//7
f 46//7 48//7 50//7
f 50//7 52//7 54//7
f 54//7 56//7 58//7
f 58//7 60//7 62//7
f 62//7 64//7 66//7
f 66//7 68//7 70//7
f 70//7 72//7 74//7
f 74//7 76//7 78//7
f 78//7 80//7 82//7
f 82//7 84//7 86//7
f 86//7 88//7 121//7
f 121//7 25//7 28//7
f 29//7 32//7 34//7
f 121//7 28//7 29//7
f 82//7 86//7 121//7
f 74//7 78//7 82//7
f 66//7 70//7 74//7
f 58//7 62//7 66//7
f 50//7 54//7 58//7
f 42//7 46//7 50//7
f 122//7 39//7 42//7
f 124//7 122//7 42//7
f 121//7 29//7 34//7
f 34//7 36//7 125//7
f 34//7 125//7 126//7
f 127//7 124//7 42//7
f 127//7 42//7 50//7
f 34//7 126//7 128//7
f 34//7 128//7 129//7
f 130//7 127//7 50//7
f 131//7 130//7 50//7
f 121//7 34//7 129//7
f 121//7 129//7 132//7
f 133//7 131//7 50//7
f 134//7 133//7 50//7
f 121//7 132//7 135//7
f 121//7 135//7 136//7
f 134//7 50//7 58//7
f 137//7 134//7 58//7
f 82//7 121//7 136//7
f 82//7 136//7 138//7
f 139//7 137//7 58//7
f 140//7 139//7 58//7
f 82//7 138//7 141//7
f 82//7 141//7 142//7
f 143//7 140//7 58//7
f 143//7 58//7 66//7
f 82//7 142//7 144//7
f 82//7 144//7 145//7
f 146//7 143//7 66//7
f 147//7 146//7 66//7
f 74//7 82//7 145//7
f 74//7 145//7 148//7
f 149//7 147//7 66//7
f 150//7 149//7 66//7
f 74//7 148//7 151//7
f 152//7 150//7 66//7
f 74//7 151//7 152//7
f 66//7 74//7 152//7
f 125//43 36//43 35//43
f 125//43 35//43 90//43
f 40//44 39//44 123//44
f 40//44 123//44 94//44
f 113//42 110//42 139//42
f 113//42 139//42 140//42
f 110//41 109//41 137//41
f 110//41 137//41 139//41
f 109//40 106//40 134//40
f 109//40 134//40 137//40
f 106//39 104//39 133//39
f 106//39 133//39 134//39
f 104//38 103//38 131//38
f 104//38 131//38 133//38
f 103//37 100//37 130//37
f 103//37 130//37 131//37
f 100//36 99//36 127//36
f 100//36 127//36 130//36
f 99//35 97//35 124//35
f 99//35 124//35 127//35
f 97//34 95//34 122//34
f 97//34 122//34 124//34
f 122//33 95//33 94//33
f 122//33 94//33 123//33
f 90//30 89//30 126//30
f 90//30 126//30 125//30
f 126//29 89//29 91//29
f 126//29 91//29 128//29
f 128//28 91//28 92//28
f 128//28 92//28 129//28
f 129//27 92//27 96//27
f 129//27 96//27 132//27
f 132//26 96//26 98//26
f 132//26 98//26 135//26
f 135//25 98//25 101//25
f 135//25 101//25 136//25
f 136//24 101//24 102//24
f 136//24 102//24 138//24
f 138//23 102//23 105//23
f 138//23 105//23 141//23
f 141//22 105//22 107//22
f 141//22 107//22 142//22
f 142//21 107//21 108//21
f 142//21 108//21 144//21
f 144//20 108//20 111//20
f 144//20 111//20 145//20
f 145//19 111//19 112//19
f 145//19 112//19 148//19
f 148//18 112//18 114//18
f 148//18 114//18 151//18
f 151//17 114//17 117//17
f 151//17 117//17 152//17
f 152//16 117//16 118//16
f 152//16 118//16 150//16
f 150//45 118//45 120//45
f 150//45 120//45 149//45
f 120//15 119//15 147//15
f 120//15 147//15 149//15
f 119//14 116//14 146//14
f 119//14 146//14 147//14
f 116//13 115//13 143//13
f 116//13 143//13 146//13
f 115//12 113//12 140//12
f 115//12 140//12 143//12
f 153//46 154//46 155//46
f 153//46 155//46 156//46
f 157//2 156//2 155//2
f 157//2 155//2 158//2
f 158//47 155//47 154//47
f 158//47 154//47 159//47
f 159//48 160//48 157//48
f 159//48 157//48 158//48
f 160//49 153//49 156//49
f 160//49 156//49 157//49
f 159//7 154//7 153//7
f 159//7 153//7 160//7
f 161//50 162//50 163//50
f 161//50 163//50 164//50
f 165//2 164//2 163//2
f 165//2 163//2 166//2
f 166//51 163//51 162//51
f 166//51 162//51 167//51
f 167//52 168//52 165//52
f 167//52 165//52 166//52
f 168//53 161//53 164//53
f 168//53 164//53 165//53
f 167//7 162//7 161//7
f 167//7 161//7 168//7
f 8//7 7//7 12//7
f 8//7 12//7 9//7
f 9//54 12//54 5//54
f 9//54 5//54 10//54
f 11//55 6//55 7//55
f 11//55 7//55 8//55
f 10//2 5//2 6//2
f 10//2 6//2 11//2
f 20//7 19//7 24//7
f 20//7 24//7 21//7
f 21//56 24//56 17//56
f 21//56 17//56 22//56
f 23//57 18//57 19//57
f 23//57 19//57 20//57
f 22//2 17//2 18//2
f 22//2 18//2 23//2
f 28//13 27//13 30//13
f 28//13 30//13 29//13
